<?xml version="1.0" standalone="no"?><!DOCTYPE svg PUBLIC "-//W3C//DTD SVG 1.1//EN" "http://www.w3.org/Graphics/SVG/1.1/DTD/svg11.dtd"><svg t="1638933332954" class="icon" viewBox="0 0 1024 1024" version="1.1" xmlns="http://www.w3.org/2000/svg" p-id="4367" xmlns:xlink="http://www.w3.org/1999/xlink" width="200" height="200"><defs><style type="text/css"></style></defs><path d="M726.47748267 238.2299136v-88.46813867c0-4.59298133-3.41879467-8.03908267-7.96808534-8.03908266h-635.44797866c-4.54929067 0-7.96808533 3.44610133-7.96808534 8.03908266v88.46813867c0 4.59298133 3.41879467 8.03908267 7.96808534 8.03908267h266.80797866v656.01536c0 2.30468267 1.70939733 4.02500267 3.981312 4.02500266h95.00535467c2.277376 0 3.981312-1.72032 3.981312-4.02500266V245.69555627H719.650816c3.407872 0 6.82666667-3.44610133 6.82666667-7.46564267z m61.44 263.67317333h-55.74929067L580.83464533 899.41715627h55.18677334l43.237376-120.635392h164.40797866l46.07726934 120.635392H948.90666667L787.91748267 501.90308693z m-93.29595734 234.37312l43.23191467-116.61038933c9.10404267-25.280512 15.93070933-50.55556267 21.05344-75.83607467 6.24776533 21.26097067 15.35726933 48.82978133 27.869184 82.72827734l40.96 110.28616533h-133.11453867v-0.56797867z m0 0" fill="#006569" p-id="4368"></path></svg>